<svg width="27" height="26" viewBox="0 0 27 26" fill="none" xmlns="http://www.w3.org/2000/svg">
<path id="s" d="M12.0366 0.896485C12.2385 0.498047 12.5328 0.232422 12.9197 0.0996096C13.3066 -0.0332032 13.6934 -0.0332032 14.0803 0.0996096C14.4672 0.232422 14.7615 0.498047 14.9634 0.896485L18.2434 7.4707L25.6107 8.5166C26.0481 8.58301 26.3929 8.78223 26.6452 9.11426C26.8975 9.44629 27.0152 9.81152 26.9984 10.21C26.9816 10.6084 26.8218 10.957 26.519 11.2559L21.1701 16.3857L22.4317 23.6572C22.4989 24.0557 22.4233 24.4292 22.2046 24.7778C21.9859 25.1265 21.6747 25.3506 21.2711 25.4502C20.8674 25.5498 20.4805 25.5 20.1104 25.3008L13.5 21.9141L6.88956 25.3008C6.51951 25.5 6.13264 25.5498 5.72895 25.4502C5.32525 25.3506 5.01408 25.1265 4.79541 24.7778C4.57674 24.4292 4.50105 24.0557 4.56833 23.6572L5.82987 16.3857L0.48096 11.2559C0.178192 10.957 0.0183971 10.6084 0.00157688 10.21C-0.0152433 9.81152 0.1025 9.44629 0.354807 9.11426C0.607114 8.78223 0.951933 8.58301 1.38927 8.5166L8.75663 7.4707L12.0366 0.896485Z" fill="#FF8B00"/>
</svg>
