<svg width="36" height="36" viewBox="0 0 36 36" fill="none" xmlns="http://www.w3.org/2000/svg">
<path fill-rule="evenodd" clip-rule="evenodd" d="M7.19995 28.8V18.2395L8.8546 16.7789C9.95467 15.7767 11.558 15.5546 12.889 16.2202L16.8436 18.1988C18.034 18.709 18.5855 20.0877 18.0753 21.2781C17.9921 21.4722 17.885 21.6505 17.7584 21.8104L20.8464 22.4284L29.6965 19.6887C31.1135 19.2738 32.5984 20.0862 33.0132 21.5031C33.2295 22.2418 33.1169 23.0378 32.7043 23.6875C32.3715 24.2113 32.0887 24.5739 31.8249 24.7937C31.2652 25.2599 28.7508 27.7125 23.1427 31.137C22.2143 31.704 21.0792 31.8207 20.0549 31.4545L12.6286 28.8H7.19995Z" fill="#1565D8"/>
<path opacity="0.3" fill-rule="evenodd" clip-rule="evenodd" d="M18.7199 13.68C18.7199 17.282 20.4969 18.72 23.7599 18.72C27.023 18.72 28.7999 17.282 28.7999 13.68C28.7999 11.088 27.2883 8.06474 24.3076 4.57257C24.0201 4.23582 23.4997 4.23582 23.2123 4.57257C20.2316 8.06474 18.7199 11.088 18.7199 13.68ZM4.69963 16.2H5.05963V29.88H4.69963C4.10316 29.88 3.61963 30.3635 3.61963 30.96C3.61963 31.5565 4.10316 32.04 4.69963 32.04H6.13963C6.7361 32.04 7.21963 31.5565 7.21963 30.96V15.12C7.21963 14.5235 6.7361 14.04 6.13963 14.04H4.69963C4.10316 14.04 3.61963 14.5235 3.61963 15.12C3.61963 15.7165 4.10316 16.2 4.69963 16.2Z" fill="#1565D8"/>
</svg>
