<svg width="36" height="36" viewBox="0 0 36 36" fill="none" xmlns="http://www.w3.org/2000/svg">
<path fill-rule="evenodd" clip-rule="evenodd" d="M21.6509 25.92H14.3488C13.9995 23.4776 11.8989 21.6 9.35988 21.6C6.85581 21.6 4.77825 23.4262 4.38636 25.8194C3.51288 25.5424 2.87988 24.7251 2.87988 23.76V18.3399C2.87988 16.9764 3.65029 15.7298 4.86991 15.12L5.99242 14.4H25.6075L30.2259 15.391C31.3331 15.6124 32.2361 16.3278 32.7244 17.28H30.9599C29.7669 17.28 28.7999 18.2471 28.7999 19.44C28.7999 20.6329 29.7669 21.6 30.9599 21.6H33.1199V23.76C33.1199 24.7251 32.4869 25.5424 31.6134 25.8194C31.2215 23.4262 29.144 21.6 26.6399 21.6C24.1008 21.6 22.0003 23.4776 21.6509 25.92ZM24.7435 12.96H15.8399V7.20001H19.2493C20.5138 7.20001 21.6856 7.86349 22.3362 8.94783L24.7435 12.96ZM6.56842 12.96L7.96722 9.46301C8.51393 8.09624 9.83768 7.20001 11.3097 7.20001H14.3999V12.96H6.56842ZM33.1199 18.921V20.16H30.9599C30.5622 20.16 30.2399 19.8377 30.2399 19.44C30.2399 19.0424 30.5622 18.72 30.9599 18.72H33.1143C33.118 18.7866 33.1199 18.8537 33.1199 18.921ZM17.9999 18.72H19.4399C19.8375 18.72 20.1599 18.3977 20.1599 18C20.1599 17.6024 19.8375 17.28 19.4399 17.28H17.9999C17.6022 17.28 17.2799 17.6024 17.2799 18C17.2799 18.3977 17.6022 18.72 17.9999 18.72Z" fill="#1565D8"/>
<path opacity="0.3" fill-rule="evenodd" clip-rule="evenodd" d="M26.64 30.24C24.6518 30.24 23.04 28.6282 23.04 26.64C23.04 24.6518 24.6518 23.04 26.64 23.04C28.6283 23.04 30.24 24.6518 30.24 26.64C30.24 28.6282 28.6283 30.24 26.64 30.24Z" fill="#1565D8"/>
<path opacity="0.3" fill-rule="evenodd" clip-rule="evenodd" d="M9.36001 30.24C7.37178 30.24 5.76001 28.6282 5.76001 26.64C5.76001 24.6518 7.37178 23.04 9.36001 23.04C11.3482 23.04 12.96 24.6518 12.96 26.64C12.96 28.6282 11.3482 30.24 9.36001 30.24Z" fill="#1565D8"/>
</svg>
