<svg width="36" height="36" viewBox="0 0 36 36" fill="none" xmlns="http://www.w3.org/2000/svg">
<path opacity="0.3" fill-rule="evenodd" clip-rule="evenodd" d="M17.4239 24.48C15.7538 24.48 14.3999 25.8339 14.3999 27.504V32.112C14.3999 32.6687 14.8512 33.12 15.4079 33.12H20.5919C21.1486 33.12 21.5999 32.6687 21.5999 32.112V27.504C21.5999 25.8339 20.246 24.48 18.5759 24.48H17.4239Z" fill="#1565D8"/>
<path fill-rule="evenodd" clip-rule="evenodd" d="M23.0399 32.2306V27.4871C23.0399 25.031 20.7947 23.04 18.3387 23.04H17.6611C15.205 23.04 12.9599 25.031 12.9599 27.4871V32.2306C12.9599 32.5425 13.0134 32.8418 13.1117 33.12H10.8846C8.42855 33.12 6.43754 31.129 6.43754 28.6729V15.0683L4.35499 16.8905C3.98532 17.214 3.42342 17.1765 3.09996 16.8069C2.77649 16.4372 2.81395 15.8753 3.18362 15.5518L17.4142 3.10007C17.7495 2.80665 18.2502 2.80665 18.5856 3.10007L32.8161 15.5518C33.1858 15.8753 33.2233 16.4372 32.8998 16.8069C32.5763 17.1765 32.0145 17.214 31.6448 16.8905L29.5622 15.0683V28.6729C29.5622 31.129 27.5712 33.12 25.1152 33.12H22.8881C22.9864 32.8418 23.0399 32.5425 23.0399 32.2306Z" fill="#1565D8"/>
</svg>
