<svg width="40" height="36" viewBox="0 0 40 36" fill="none" xmlns="http://www.w3.org/2000/svg">
<path d="M36.25 18.369H30V13.369C30 10.6346 32.1875 8.36896 35 8.36896H35.625C36.6406 8.36896 37.5 7.58771 37.5 6.49396V2.74396C37.5 1.72833 36.6406 0.868958 35.625 0.868958H35C28.0469 0.868958 22.5 6.49396 22.5 13.369V32.119C22.5 34.2283 24.1406 35.869 26.25 35.869H36.25C38.2812 35.869 40 34.2283 40 32.119V22.119C40 20.0877 38.2812 18.369 36.25 18.369ZM13.75 18.369H7.5V13.369C7.5 10.6346 9.6875 8.36896 12.5 8.36896H13.125C14.1406 8.36896 15 7.58771 15 6.49396V2.74396C15 1.72833 14.1406 0.868958 13.125 0.868958H12.5C5.54688 0.868958 0 6.49396 0 13.369V32.119C0 34.2283 1.64062 35.869 3.75 35.869H13.75C15.7812 35.869 17.5 34.2283 17.5 32.119V22.119C17.5 20.0877 15.7812 18.369 13.75 18.369Z" fill="#36B37E"/>
</svg>
