<svg width="28" height="28" viewBox="0 0 28 28" fill="none" xmlns="http://www.w3.org/2000/svg">
<path fill-rule="evenodd" clip-rule="evenodd" d="M14.8838 16.1576C15.5804 14.6441 14.9384 13.3972 13.1649 12.6249L10.2267 11.4117C9.27479 11.0187 8.18411 11.1806 7.38727 11.8333L4.68515 14.0467L4.60657 14.8347L4.47998 21.28V22.4H7.74925L14.4168 24.2945C15.2579 24.5335 16.1623 24.3653 16.8615 23.8398C21.2547 20.5376 24.1901 18.3078 24.6347 17.8945C25.7123 16.8924 26.1366 15.7783 25.3687 14.6801C24.7481 13.7924 23.7013 13.6977 22.404 14.285L16.0941 17.4942L14.3199 16.93C14.5486 16.7327 14.7373 16.4759 14.8838 16.1576Z" fill="#1565D8"/>
<path opacity="0.3" fill-rule="evenodd" clip-rule="evenodd" d="M20.9475 4.48121H19.6001V4.2006C19.6001 3.73641 19.2241 3.35999 18.7601 3.35999C18.2961 3.35999 17.9201 3.73641 17.9201 4.2006V4.48121H17.6557C16.5732 4.48121 15.6957 5.35963 15.6957 6.44305V7.00452C15.6957 8.08794 16.5732 8.96636 17.6557 8.96636H19.8801C20.0347 8.96636 20.1601 9.09192 20.1601 9.24697V9.80674C20.1601 9.96178 20.0347 10.0874 19.8801 10.0874H17.3099C17.1856 9.79244 16.8981 9.58405 16.5612 9.5738C16.0975 9.55968 15.7102 9.9245 15.6961 10.3885L15.6805 10.9024C15.6661 11.3764 16.0461 11.7686 16.5201 11.7686H17.9201V12.0394C17.9201 12.5036 18.2961 12.88 18.7601 12.88C19.2241 12.88 19.6001 12.5036 19.6001 12.0394V11.7686H19.8801C20.9626 11.7686 21.8401 10.8902 21.8401 9.80674V9.24697C21.8401 8.16355 20.9626 7.28513 19.8801 7.28513H17.6557C17.5011 7.28513 17.3757 7.15956 17.3757 7.00452V6.44305C17.3757 6.28801 17.5011 6.16244 17.6557 6.16244H20.2175C20.3635 6.41868 20.6386 6.58687 20.9475 6.58687C21.4115 6.58687 21.7875 6.21045 21.7875 5.74626V5.32183C21.7875 4.85764 21.4115 4.48121 20.9475 4.48121ZM3.92008 12.6H4.20008V23.24H3.92008C3.45616 23.24 3.08008 23.6161 3.08008 24.08C3.08008 24.5439 3.45616 24.92 3.92008 24.92H5.04008C5.504 24.92 5.88008 24.5439 5.88008 24.08V11.76C5.88008 11.2961 5.504 10.92 5.04008 10.92H3.92008C3.45616 10.92 3.08008 11.2961 3.08008 11.76C3.08008 12.2239 3.45616 12.6 3.92008 12.6Z" fill="#1565D8"/>
</svg>
