<svg width="28" height="28" viewBox="0 0 28 28" fill="none" xmlns="http://www.w3.org/2000/svg">
<path fill-rule="evenodd" clip-rule="evenodd" d="M8.04468 10.9915C9.51658 8.8998 10.4353 6.49962 10.8039 3.78238C10.839 3.52354 11.0223 3.3083 11.2738 3.23047C13.8086 2.44603 15.2497 3.69257 15.2259 6.53496C15.2212 7.0867 15.1958 7.57711 15.1416 8.32716C15.0205 10.0025 15.0301 10.4597 15.2177 10.7674C15.398 11.0631 15.9834 11.1641 17.3678 10.9012C17.8046 10.8183 18.2428 10.7243 18.7282 10.6114C18.9425 10.5615 20.4858 10.1849 20.8803 10.0998C21.6328 9.93727 22.1727 9.8685 22.6475 9.89762C23.9338 9.97651 24.6163 10.8047 24.7343 12.3913C24.942 15.1855 24.3002 20.798 23.6599 22.8653C23.0057 24.9778 21.8647 25.7752 19.1258 25.8233C17.3649 25.8543 14.6566 25.8543 10.9882 25.8232C10.0518 25.8015 9.20314 25.6201 8.44827 25.2811C8.66017 24.8424 8.77883 24.3509 8.77883 23.832V13.08C8.77883 12.2907 8.50428 11.5649 8.04468 10.9915Z" fill="#1565D8"/>
<path opacity="0.3" fill-rule="evenodd" clip-rule="evenodd" d="M4.03368 11.064C2.91051 11.064 2 11.9666 2 13.08V23.832C2 24.9454 2.91051 25.848 4.03368 25.848H5.38947C6.51265 25.848 7.42316 24.9454 7.42316 23.832V13.08C7.42316 11.9666 6.51265 11.064 5.38947 11.064H4.03368Z" fill="#1565D8"/>
</svg>
