<svg width="28" height="28" viewBox="0 0 28 28" fill="none" xmlns="http://www.w3.org/2000/svg">
<path fill-rule="evenodd" clip-rule="evenodd" d="M8.28149 21.4854C7.90425 20.4635 7.60449 19.3323 7.39548 18.1208C6.40312 17.3064 5.52576 16.4483 4.7822 15.574C3.82451 17.2488 3.55319 18.8066 4.17018 19.9094C4.79878 21.0328 6.3107 21.5546 8.28149 21.4854ZM9.06015 23.2363C6.05883 23.5014 3.63089 22.7029 2.54871 20.7688C1.50938 18.9113 1.99428 16.4569 3.59969 14C1.99427 11.5431 1.50938 9.08875 2.54871 7.23123C3.63089 5.2971 6.05883 4.49856 9.06015 4.76372C10.301 2.43452 12.0306 1 14 1C15.9694 1 17.699 2.43452 18.9399 4.76373C21.9412 4.49856 24.3691 5.2971 25.4513 7.23123C26.4906 9.08875 26.0057 11.5431 24.4003 14C26.0057 16.4569 26.4906 18.9113 25.4513 20.7688C24.3691 22.7029 21.9412 23.5014 18.9399 23.2363C17.699 25.5655 15.9694 27 14 27C12.0306 27 10.301 25.5655 9.06015 23.2363ZM23.2178 12.426C24.1755 10.7512 24.4468 9.19335 23.8298 8.09064C23.2012 6.9672 21.6893 6.44543 19.7185 6.51458C20.0957 7.53654 20.3955 8.6677 20.6045 9.87923C21.5969 10.6936 22.4742 11.5517 23.2178 12.426ZM17.0267 5.06067C16.1615 3.65178 15.1042 2.81395 14 2.81395C12.8958 2.81395 11.8385 3.65178 10.9733 5.06067C11.9509 5.27383 12.9671 5.58463 14 5.99104C15.0329 5.58463 16.0491 5.27383 17.0267 5.06067ZM16.381 7.08595C16.8852 6.94039 17.3782 6.82226 17.8555 6.73166C18.0463 7.20622 18.2197 7.71496 18.373 8.25278C18.1054 8.07957 17.8322 7.90982 17.5536 7.74388C17.1635 7.51147 16.7722 7.29212 16.381 7.08595ZM11.619 7.08595C11.1148 6.94039 10.6218 6.82226 10.1445 6.73166C9.95371 7.20622 9.7803 7.71496 9.62703 8.25278C9.89464 8.07957 10.1678 7.90982 10.4464 7.74388C10.8365 7.51147 11.2278 7.29212 11.619 7.08595ZM9.08109 10.8631C9.79976 10.3054 10.579 9.77177 11.4103 9.27654C12.2737 8.76218 13.143 8.31895 14 7.94732C14.857 8.31895 15.7263 8.76218 16.5897 9.27654C17.421 9.77177 18.2002 10.3054 18.9189 10.8631C19.059 11.8596 19.135 12.9125 19.135 14C19.135 15.0875 19.059 16.1404 18.9189 17.1369C18.2002 17.6946 17.421 18.2282 16.5897 18.7235C15.7263 19.2378 14.857 19.681 14 20.0527C13.143 19.681 12.2737 19.2378 11.4103 18.7235C10.579 18.2282 9.79976 17.6946 9.08109 17.1369C8.94098 16.1404 8.86499 15.0875 8.86499 14C8.86499 12.9125 8.94098 11.8596 9.08109 10.8631ZM7.39548 9.87923C7.60449 8.6677 7.90425 7.53654 8.28149 6.51458C6.3107 6.44543 4.79878 6.9672 4.17018 8.09064C3.55319 9.19336 3.82451 10.7512 4.7822 12.426C5.52576 11.5517 6.40312 10.6935 7.39548 9.87923ZM5.85894 14C6.22533 13.5387 6.63687 13.0765 7.08964 12.62C7.06515 13.0733 7.05263 13.5337 7.05263 14C7.05263 14.4663 7.06515 14.9267 7.08964 15.38C6.63687 14.9235 6.22533 14.4613 5.85894 14ZM14 22.009C15.0329 22.4154 16.0491 22.7262 17.0267 22.9393C16.1615 24.3482 15.1042 25.186 14 25.186C12.8958 25.186 11.8385 24.3482 10.9733 22.9393C11.9509 22.7262 12.9671 22.4154 14 22.009ZM11.619 20.9141C11.1148 21.0596 10.6218 21.1777 10.1445 21.2683C9.95371 20.7938 9.7803 20.285 9.62703 19.7472C9.89464 19.9204 10.1678 20.0902 10.4464 20.2561C10.8365 20.4885 11.2278 20.7079 11.619 20.9141ZM16.381 20.9141C16.7722 20.7079 17.1635 20.4885 17.5536 20.2561C17.8322 20.0902 18.1054 19.9204 18.373 19.7472C18.2197 20.285 18.0463 20.7938 17.8555 21.2683C17.3782 21.1777 16.8852 21.0596 16.381 20.9141ZM20.6045 18.1208C20.3955 19.3323 20.0957 20.4635 19.7185 21.4854C21.6893 21.5546 23.2012 21.0328 23.8298 19.9094C24.4468 18.8066 24.1755 17.2488 23.2178 15.574C22.4742 16.4483 21.5969 17.3064 20.6045 18.1208ZM20.9104 15.38C21.3631 14.9235 21.7747 14.4613 22.1411 14C21.7747 13.5387 21.3631 13.0765 20.9104 12.62C20.9349 13.0733 20.9474 13.5337 20.9474 14C20.9474 14.4663 20.9349 14.9267 20.9104 15.38Z" fill="#1565D8"/>
<path opacity="0.3" fill-rule="evenodd" clip-rule="evenodd" d="M14.0545 17.0667C12.3676 17.0667 11 15.7086 11 14.0333C11 12.3581 12.3676 11 14.0545 11C15.7415 11 17.1091 12.3581 17.1091 14.0333C17.1091 15.7086 15.7415 17.0667 14.0545 17.0667Z" fill="#1565D8"/>
</svg>
