<svg width="28" height="28" viewBox="0 0 28 28" fill="none" xmlns="http://www.w3.org/2000/svg">
<path fill-rule="evenodd" clip-rule="evenodd" d="M24.2703 5.91328L14.1903 2.27328C14.0674 2.22889 13.9328 2.22889 13.8099 2.27328L3.72991 5.91328C3.50799 5.99342 3.36011 6.20405 3.36011 6.43999V14C3.36011 19.9366 6.90561 23.8761 13.855 25.7409C13.9513 25.7667 14.0528 25.7664 14.1489 25.7399C21.096 23.8248 24.6401 19.8869 24.6401 14V6.43999C24.6401 6.20405 24.4922 5.99342 24.2703 5.91328ZM10.1341 13.0204C10.3581 12.8072 10.7126 12.816 10.9258 13.0401L13.1912 15.4208L17.9484 10.2604C18.158 10.033 18.5123 10.0186 18.7397 10.2283C18.9671 10.4379 18.9815 10.7922 18.7718 11.0196L13.6094 16.6196C13.39 16.8576 13.0151 16.8605 12.792 16.626L10.1144 13.8121C9.90122 13.5881 9.91002 13.2336 10.1341 13.0204Z" fill="#1565D8"/>
</svg>
