<svg width="28" height="28" viewBox="0 0 28 28" fill="none" xmlns="http://www.w3.org/2000/svg">
<path fill-rule="evenodd" clip-rule="evenodd" d="M7.37372 9.93335C12.3351 10.6335 16.2158 8.82516 18.9182 4.53253C18.9317 4.51102 18.9441 4.48895 18.9554 4.46644C19.9953 5.6367 20.6271 7.17791 20.6271 8.86666V11.2933C20.6271 13.7459 19.2822 15.9507 17.1975 17.0993C16.9259 16.9106 16.5959 16.8 16.2401 16.8C15.3123 16.8 14.5601 17.5522 14.5601 18.48C14.5601 19.4078 15.3123 20.16 16.2401 20.16C16.71 20.16 17.1349 19.9671 17.4397 19.6561C16.9854 21.0833 15.6173 22.12 14.0001 22.12C12.0134 22.12 10.4026 20.5554 10.4001 18.6244L10.9313 17.168C8.77375 16.0402 7.37372 13.7957 7.37372 11.2933V9.93335ZM7.38685 8.44606C7.6038 4.98222 10.4819 2.23999 14.0004 2.23999C15.4833 2.23999 16.8525 2.72712 17.9567 3.55009C17.9228 3.58498 17.8916 3.62452 17.8639 3.66856C15.4317 7.53188 11.9942 9.11808 7.45198 8.45188C7.43014 8.44868 7.40841 8.44675 7.38685 8.44606ZM9.01682 19.3575C9.38266 21.7138 11.4744 23.52 14.0001 23.52C16.5263 23.52 18.6184 21.713 18.9836 19.356L21.669 19.8975C22.7357 20.1056 23.5857 20.9122 23.8493 21.9666L24.6237 25.0642C24.712 25.4176 24.4447 25.76 24.0804 25.76H3.92038C3.55606 25.76 3.28874 25.4176 3.3771 25.0642L4.15049 21.9706C4.41474 20.9136 5.26809 20.1059 6.33259 19.9012L9.01682 19.3575Z" fill="#1565D8"/>
<path opacity="0.3" fill-rule="evenodd" clip-rule="evenodd" d="M16.2399 19.04C16.5492 19.04 16.7999 18.7893 16.7999 18.48C16.7999 18.1708 16.5492 17.92 16.2399 17.92C15.9307 17.92 15.6799 18.1708 15.6799 18.48C15.6799 18.7893 15.9307 19.04 16.2399 19.04Z" fill="#1565D8"/>
<path opacity="0.3" fill-rule="evenodd" clip-rule="evenodd" d="M21.6796 7.83997H21.8401C22.7679 7.83997 23.5201 8.59213 23.5201 9.51997V11.76C23.5201 12.6878 22.7679 13.44 21.8401 13.44H21.4443C21.6424 12.7527 21.747 12.0314 21.747 11.2933V8.86663C21.747 8.51857 21.724 8.17587 21.6796 7.83997Z" fill="#1565D8"/>
<path opacity="0.3" fill-rule="evenodd" clip-rule="evenodd" d="M6.55625 13.44H6.15998C5.23214 13.44 4.47998 12.6878 4.47998 11.76V9.51997C4.47998 8.59213 5.23214 7.83997 6.15998 7.83997H6.32102C6.27654 8.17587 6.25359 8.51857 6.25359 8.86663V11.2933C6.25359 12.0314 6.3582 12.7527 6.55625 13.44Z" fill="#1565D8"/>
</svg>
