<svg width="24" height="24" viewBox="0 0 24 24" fill="none" xmlns="http://www.w3.org/2000/svg">
<path fill-rule="evenodd" clip-rule="evenodd" d="M2.09009 5.2H21.9099C22.5119 5.2 23 4.70751 23 4.1C23 3.49249 22.5119 3 21.9099 3H2.09009C1.48805 3 1 3.49249 1 4.1C1 4.70751 1.48805 5.2 2.09009 5.2ZM2.09009 12.9484H21.9099C22.5119 12.9484 23 12.4559 23 11.8484C23 11.2408 22.5119 10.7484 21.9099 10.7484H2.09009C1.48805 10.7484 1 11.2408 1 11.8484C1 12.4559 1.48805 12.9484 2.09009 12.9484ZM21.9099 20.6967H2.09009C1.48805 20.6967 1 20.2042 1 19.5967C1 18.9892 1.48805 18.4967 2.09009 18.4967H21.9099C22.5119 18.4967 23 18.9892 23 19.5967C23 20.2042 22.5119 20.6967 21.9099 20.6967Z" fill="#3A4C66"/>
</svg>
