<svg width="28" height="28" viewBox="0 0 28 28" fill="none" xmlns="http://www.w3.org/2000/svg">
<path fill-rule="evenodd" clip-rule="evenodd" d="M14.8838 16.1577C15.5804 14.6443 14.9384 13.3974 13.1649 12.6251L10.2267 11.4119C9.27479 11.0189 8.18411 11.1808 7.38727 11.8335L4.68515 14.0468L4.60657 14.8349L4.47998 21.2802V22.4002H7.74925L14.4168 24.2947C15.2579 24.5337 16.1623 24.3654 16.8615 23.84C21.2547 20.5378 24.1901 18.308 24.6347 17.8946C25.7123 16.8926 26.1366 15.7785 25.3687 14.6803C24.7481 13.7926 23.7013 13.6979 22.404 14.2852L16.0941 17.4944L14.3199 16.9301C14.5486 16.7329 14.7373 16.476 14.8838 16.1577Z" fill="#1565D8"/>
<path opacity="0.3" fill-rule="evenodd" clip-rule="evenodd" d="M20.9474 4.48133H19.6V4.20072C19.6 3.73653 19.2239 3.36011 18.76 3.36011C18.296 3.36011 17.92 3.73653 17.92 4.20072V4.48133H17.6556C16.573 4.48133 15.6956 5.35975 15.6956 6.44318V7.00464C15.6956 8.08806 16.573 8.96648 17.6556 8.96648H19.88C20.0345 8.96648 20.16 9.09205 20.16 9.24709V9.80686C20.16 9.96191 20.0345 10.0875 19.88 10.0875H17.3098C17.1855 9.79257 16.898 9.58418 16.5611 9.57392C16.0973 9.5598 15.7101 9.92462 15.696 10.3886L15.6804 10.9025C15.666 11.3765 16.046 11.7687 16.52 11.7687H17.92V12.0395C17.92 12.5037 18.296 12.8801 18.76 12.8801C19.2239 12.8801 19.6 12.5037 19.6 12.0395V11.7687H19.88C20.9625 11.7687 21.84 10.8903 21.84 9.80686V9.24709C21.84 8.16367 20.9625 7.28525 19.88 7.28525H17.6556C17.501 7.28525 17.3756 7.15969 17.3756 7.00464V6.44318C17.3756 6.28813 17.501 6.16256 17.6556 6.16256H20.2174C20.3634 6.4188 20.6385 6.58699 20.9474 6.58699C21.4114 6.58699 21.7874 6.21057 21.7874 5.74638V5.32195C21.7874 4.85776 21.4114 4.48133 20.9474 4.48133ZM3.91996 12.6001H4.19996V23.2401H3.91996C3.45604 23.2401 3.07996 23.6162 3.07996 24.0801C3.07996 24.544 3.45604 24.9201 3.91996 24.9201H5.03996C5.50388 24.9201 5.87996 24.544 5.87996 24.0801V11.7601C5.87996 11.2962 5.50388 10.9201 5.03996 10.9201H3.91996C3.45604 10.9201 3.07996 11.2962 3.07996 11.7601C3.07996 12.224 3.45604 12.6001 3.91996 12.6001Z" fill="#1565D8"/>
</svg>
