<svg width="28" height="28" viewBox="0 0 28 28" fill="none" xmlns="http://www.w3.org/2000/svg">
<path fill-rule="evenodd" clip-rule="evenodd" d="M8.0448 10.9915C9.5167 8.8998 10.4355 6.49962 10.8041 3.78238C10.8392 3.52354 11.0224 3.3083 11.2739 3.23047C13.8087 2.44603 15.2498 3.69257 15.226 6.53496C15.2214 7.0867 15.1959 7.57711 15.1417 8.32716C15.0206 10.0025 15.0302 10.4597 15.2178 10.7674C15.3981 11.0631 15.9835 11.1641 17.3679 10.9012C17.8047 10.8183 18.243 10.7243 18.7283 10.6114C18.9426 10.5615 20.4859 10.1849 20.8804 10.0998C21.6329 9.93727 22.1729 9.8685 22.6476 9.89762C23.9339 9.97651 24.6164 10.8047 24.7344 12.3913C24.9421 15.1855 24.3003 20.798 23.66 22.8653C23.0058 24.9778 21.8648 25.7752 19.1259 25.8233C17.365 25.8543 14.6567 25.8543 10.9883 25.8232C10.0519 25.8015 9.20326 25.6201 8.44839 25.2811C8.66029 24.8424 8.77895 24.3509 8.77895 23.832V13.08C8.77895 12.2907 8.5044 11.5649 8.0448 10.9915Z" fill="#1565D8"/>
<path opacity="0.3" fill-rule="evenodd" clip-rule="evenodd" d="M4.03368 11.064C2.91051 11.064 2 11.9666 2 13.08V23.832C2 24.9454 2.91051 25.848 4.03368 25.848H5.38947C6.51265 25.848 7.42316 24.9454 7.42316 23.832V13.08C7.42316 11.9666 6.51265 11.064 5.38947 11.064H4.03368Z" fill="#1565D8"/>
</svg>
