<svg width="24" height="24" viewBox="0 0 24 24" fill="none" xmlns="http://www.w3.org/2000/svg">
<path opacity="0.3" fill-rule="evenodd" clip-rule="evenodd" d="M16.08 5.51992C16.08 4.32699 15.1129 3.35992 13.92 3.35992H10.08C8.88705 3.35992 7.91998 4.32699 7.91998 5.51992V6.71992H16.08V5.51992ZM10.08 1.91992H13.92C15.9082 1.91992 17.52 3.5317 17.52 5.51992V8.15992H6.47998V5.51992C6.47998 3.5317 8.09176 1.91992 10.08 1.91992Z" fill="#1565D8"/>
<path fill-rule="evenodd" clip-rule="evenodd" d="M11.9999 14.4C12.6091 14.4 13.1298 14.7782 13.3403 15.3126C16.3951 15.0944 19.2385 14.1232 21.8632 12.4013C21.9985 12.3126 22.0799 12.1617 22.0799 12V10.08C22.0799 8.22429 20.5756 6.71997 18.7199 6.71997H5.27992C3.42424 6.71997 1.91992 8.22429 1.91992 10.08V12C1.91992 12.1617 2.00139 12.3126 2.13663 12.4013C4.76133 14.1232 7.60478 15.0944 10.6596 15.3126C10.87 14.7782 11.3908 14.4 11.9999 14.4ZM11.9999 17.28C11.3554 17.28 10.8097 16.8565 10.626 16.2726C7.63392 16.0643 4.82907 15.1698 2.22944 13.5947L3.3863 19.379C3.70041 20.9496 5.0794 22.0801 6.68105 22.0801H17.319C18.9206 22.0801 20.2996 20.9496 20.6137 19.379L21.7706 13.5946C19.1709 15.1697 16.366 16.0643 13.3738 16.2726C13.1901 16.8565 12.6445 17.28 11.9999 17.28Z" fill="#1565D8"/>
</svg>
