<svg width="24" height="24" viewBox="0 0 24 24" fill="none" xmlns="http://www.w3.org/2000/svg">
<path opacity="0.3" fill-rule="evenodd" clip-rule="evenodd" d="M17.603 2.22795C17.51 2.10924 17.4009 2.00589 17.2799 1.91992V6.21057C17.2799 6.49188 17.514 6.71992 17.8029 6.71992H21.1199L17.603 2.22795ZM13.9199 22.0799C15.2602 22.0799 16.4173 21.2951 16.9565 20.1599H10.0799C7.69401 20.1599 5.75988 18.2258 5.75988 15.8399V5.27992C5.75988 5.12824 5.7677 4.97838 5.78295 4.83073C4.14342 5.05365 2.87988 6.45923 2.87988 8.15992V18.7199C2.87988 20.5756 4.38421 22.0799 6.23988 22.0799H13.9199Z" fill="#1565D8"/>
<path fill-rule="evenodd" clip-rule="evenodd" d="M16.32 1.91992V6.23992C16.32 7.03521 16.9647 7.67992 17.76 7.67992H21.12V15.8399C21.12 17.6956 19.6156 19.1999 17.76 19.1999H10.08C8.22429 19.1999 6.71997 17.6956 6.71997 15.8399V5.27992C6.71997 3.42424 8.22429 1.91992 10.08 1.91992L16.32 1.91992Z" fill="#1565D8"/>
</svg>
