<svg width="24" height="24" viewBox="0 0 24 24" fill="none" xmlns="http://www.w3.org/2000/svg">
<path fill-rule="evenodd" clip-rule="evenodd" d="M20.1719 13.4666C19.4172 9.55013 15.9896 6.71997 12.0011 6.71997C8.01258 6.71997 4.58502 9.55013 3.83035 13.4666L2.94058 18.0842C2.90021 18.2937 2.87988 18.5066 2.87988 18.72C2.87988 20.5756 4.38421 22.08 6.23988 22.08H17.7623C17.9757 22.08 18.1886 22.0596 18.3981 22.0193C20.2202 21.6682 21.4127 19.9064 21.0616 18.0842L20.1719 13.4666ZM13.9199 11.52H12.4799V11.04C12.4799 10.7749 12.265 10.56 11.9999 10.56C11.7348 10.56 11.5199 10.7749 11.5199 11.04V11.52H11.0533C10.258 11.52 9.61327 12.1647 9.61327 12.96V13.4407C9.61327 14.236 10.258 14.8807 11.0533 14.8807H12.9599C13.225 14.8807 13.4399 15.0956 13.4399 15.3607V15.84C13.4399 16.1051 13.225 16.32 12.9599 16.32H10.5716C10.5519 16.0798 10.3544 15.8877 10.1079 15.8802C9.84289 15.8721 9.62155 16.0804 9.61349 16.3453L9.60011 16.7854C9.59188 17.0561 9.80907 17.28 10.0799 17.28H11.5199V17.7516C11.5199 18.0167 11.7348 18.2316 11.9999 18.2316C12.265 18.2316 12.4799 18.0167 12.4799 17.7516V17.28H12.9599C13.7552 17.28 14.3999 16.6353 14.3999 15.84V15.3607C14.3999 14.5654 13.7552 13.9207 12.9599 13.9207H11.0533C10.7882 13.9207 10.5733 13.7058 10.5733 13.4407V12.96C10.5733 12.6949 10.7882 12.48 11.0533 12.48H13.4541C13.5062 12.6887 13.695 12.8434 13.9199 12.8434C14.185 12.8434 14.3999 12.6285 14.3999 12.3634V12C14.3999 11.7349 14.185 11.52 13.9199 11.52Z" fill="#1565D8"/>
<path opacity="0.3" fill-rule="evenodd" clip-rule="evenodd" d="M15.6721 6.51573C14.5404 6.02789 13.2974 5.75992 12.0012 5.75992C10.7049 5.75992 9.4618 6.02793 8.33007 6.51583L6.75539 2.57914C6.6037 2.19991 6.96483 1.81656 7.35243 1.94537L10.0523 2.84259L11.7856 1.97194C11.9205 1.90417 12.0795 1.90384 12.2147 1.97103L13.9687 2.8427L16.6487 1.94569C17.0365 1.8159 17.3986 2.19946 17.2467 2.57914L15.6721 6.51573V6.51573Z" fill="#1565D8"/>
</svg>
