<svg width="24" height="24" viewBox="0 0 24 24" fill="none" xmlns="http://www.w3.org/2000/svg">
<path fill-rule="evenodd" clip-rule="evenodd" d="M6.32012 8.51423C10.5728 9.11438 13.899 7.56435 16.2154 3.88496C16.227 3.86652 16.2376 3.8476 16.2472 3.8283C17.1387 4.83139 17.6801 6.15242 17.6801 7.59992V9.67992C17.6801 11.7821 16.5274 13.672 14.7405 14.6565C14.5077 14.4947 14.2249 14.3999 13.9199 14.3999C13.1246 14.3999 12.4799 15.0446 12.4799 15.8399C12.4799 16.6352 13.1246 17.2799 13.9199 17.2799C14.3227 17.2799 14.6868 17.1146 14.9481 16.848C14.5587 18.0713 13.3861 18.9599 11.9999 18.9599C10.297 18.9599 8.91629 17.6188 8.91417 15.9637L9.36949 14.7154C7.52015 13.7487 6.32012 11.8248 6.32012 9.67992V8.51423V8.51423ZM6.33138 7.23941C6.51734 4.2704 8.98424 1.91992 12.0001 1.91992C13.2712 1.91992 14.4448 2.33746 15.3912 3.04286C15.3622 3.07277 15.3354 3.10666 15.3117 3.14441C13.227 6.45583 10.2805 7.81543 6.3872 7.2444C6.36848 7.24166 6.34985 7.24001 6.33138 7.23941H6.33138ZM7.72849 16.5921C8.04207 18.6117 9.83501 20.1599 11.9999 20.1599C14.1652 20.1599 15.9584 18.6111 16.2715 16.5908L18.5732 17.0549C19.4876 17.2333 20.2161 17.9247 20.442 18.8284L21.1058 21.4835C21.1815 21.7865 20.9524 22.0799 20.6401 22.0799H3.36012C3.04785 22.0799 2.81871 21.7865 2.89445 21.4835L3.55736 18.8319C3.78385 17.9259 4.5153 17.2336 5.42772 17.0581L7.72849 16.5921Z" fill="#1565D8"/>
<path opacity="0.3" fill-rule="evenodd" clip-rule="evenodd" d="M13.9199 16.3201C14.185 16.3201 14.3999 16.1052 14.3999 15.8401C14.3999 15.575 14.185 15.3601 13.9199 15.3601C13.6548 15.3601 13.4399 15.575 13.4399 15.8401C13.4399 16.1052 13.6548 16.3201 13.9199 16.3201Z" fill="#1565D8"/>
<path opacity="0.3" fill-rule="evenodd" clip-rule="evenodd" d="M18.5825 6.71997H18.72C19.5153 6.71997 20.16 7.36468 20.16 8.15997V10.08C20.16 10.8753 19.5153 11.52 18.72 11.52H18.3809C18.5506 10.9309 18.6403 10.3126 18.6403 9.67997V7.59997C18.6403 7.30163 18.6206 7.00789 18.5825 6.71997Z" fill="#1565D8"/>
<path opacity="0.3" fill-rule="evenodd" clip-rule="evenodd" d="M5.61975 11.52H5.28009C4.4848 11.52 3.84009 10.8753 3.84009 10.08V8.15997C3.84009 7.36468 4.4848 6.71997 5.28009 6.71997H5.41812C5.38 7.00789 5.36032 7.30163 5.36032 7.59997V9.67997C5.36032 10.3126 5.44999 10.9309 5.61975 11.52V11.52Z" fill="#1565D8"/>
</svg>
